<svg version="1.1" id="Layer_1" xmlns="http://www.w3.org/2000/svg" x="0" y="0" viewBox="0 0 512 512" xml:space="preserve"><path fill="#cee8fa" d="M434.188 320.607V193.564H77.812v233.405h250.014z"/><g fill="#2d527c"><path d="M496.438 147.084c8.594 0 15.562-6.967 15.562-15.562V53.69c0-8.595-6.969-15.562-15.562-15.562h-87.149V22.575c0-8.595-6.969-15.562-15.562-15.562s-15.562 6.967-15.562 15.562v15.553H133.836V22.575c0-8.595-6.967-15.562-15.562-15.562s-15.562 6.967-15.562 15.562v15.553h-87.15C6.967 38.128 0 45.095 0 53.69v435.736c0 8.595 6.967 15.562 15.562 15.562h480.875c8.594 0 15.562-6.967 15.562-15.562V193.564c0-8.595-6.969-15.562-15.562-15.562-8.594 0-15.562 6.967-15.562 15.562v280.299H31.125V147.084h362.602c8.594 0 15.562-6.967 15.562-15.562s-6.969-15.562-15.562-15.562H31.125V69.252h71.587v7.781c0 8.595 6.967 15.562 15.562 15.562s15.562-6.967 15.562-15.562v-7.781h244.328v7.781c0 8.595 6.969 15.562 15.562 15.562s15.562-6.967 15.562-15.562v-7.781h71.587v62.269c0 8.596 6.969 15.563 15.563 15.563z"/><path d="M77.812 178.002c-8.595 0-15.562 6.967-15.562 15.562v233.405c0 8.595 6.967 15.562 15.562 15.562h356.377c8.594 0 15.562-6.967 15.562-15.562V193.564c0-8.595-6.969-15.562-15.562-15.562H77.812zm15.562 233.405v-202.28h325.252v105.035l-97.244 97.246H93.374zm272.024 0l53.228-53.229v53.228h-53.228v.001z"/><path d="M246.278 336.843v-3.519c0-12.408-7.593-14.815-17.778-14.815-6.297 0-8.334-5.556-8.334-11.111 0-5.556 2.037-11.113 8.334-11.113 7.037 0 14.445-.926 14.445-15.926 0-10.741-6.111-13.334-13.704-13.334-9.074 0-13.704 2.222-13.704 9.445 0 6.297-2.778 10.556-13.519 10.556-13.334 0-15.002-2.778-15.002-11.669 0-14.445 10.372-33.149 42.225-33.149 23.519 0 41.299 8.519 41.299 33.521 0 13.519-5 26.112-14.26 30.373 10.926 4.074 18.89 12.223 18.89 27.223v3.519c0 30.373-20.927 41.855-46.853 41.855-31.855 0-44.077-19.445-44.077-35.003 0-8.334 3.519-10.556 13.706-10.556 11.852 0 14.815 2.594 14.815 9.63 0 8.704 8.148 10.741 16.482 10.741 12.591-.001 17.035-4.63 17.035-16.668zm52.595-62.411l-5.371 3.333c-1.667 1.111-3.333 1.482-4.63 1.482-5.371 0-9.074-5.741-9.074-11.482 0-3.889 1.667-7.593 5.371-9.815l24.445-14.817c1.482-.926 3.333-1.296 5.371-1.296 5.926 0 12.778 3.519 12.778 9.074v117.785c0 5.928-7.223 8.889-14.445 8.889s-14.445-2.963-14.445-8.889v-94.264z"/></g></svg>