<svg version="1.1" id="Layer_1" xmlns="http://www.w3.org/2000/svg" x="0" y="0" viewBox="0 0 354.856 354.856" xml:space="preserve"><path d="M307.943 199.173c16.571-15.084 26.979-36.832 26.979-61.008 0-45.55-36.925-82.474-82.474-82.474-33.914 0-63.045 20.476-75.713 49.737 15.541 17.534 24.992 40.582 24.992 65.8 0 21.149-6.804 41.654-19.089 58.524a122.889 122.889 0 0128.169 36.35h144.049c-5.989-28.156-23.288-52.126-46.913-66.929z" fill="#333e48"/><path d="M0 299.166h204.811c-5.986-28.155-23.285-52.126-46.912-66.929 16.573-15.084 26.979-36.832 26.979-61.009 0-45.549-36.924-82.474-82.474-82.474-45.545 0-82.471 36.925-82.471 82.474 0 24.177 10.404 45.925 26.978 61.009C23.284 247.04 5.986 271.01 0 299.166z" fill="#61b4e4"/></svg>